<?xml version="1.0" encoding="UTF-8" standalone="no"?>
<!DOCTYPE svg PUBLIC "-//W3C//DTD SVG 1.1//EN" "http://www.w3.org/Graphics/SVG/1.1/DTD/svg11.dtd">
<svg xmlns="http://www.w3.org/2000/svg" xmlns:xl="http://www.w3.org/1999/xlink" version="1.1" xmlns:dc="http://purl.org/dc/elements/1.1/" viewBox="242 9 723 638" width="723" height="638">
  <defs>
    <marker orient="auto" overflow="visible" markerUnits="strokeWidth" id="FilledArrow_Marker" stroke-linejoin="miter" stroke-miterlimit="10" viewBox="-1 -3 7 6" markerWidth="7" markerHeight="6" color="black">
      <g>
        <path d="M 4.8 0 L 0 -1.8 L 0 1.8 Z" fill="currentColor" stroke="currentColor" stroke-width="1"/>
      </g>
    </marker>
  </defs>
  <g id="Canvas_1" stroke="none" stroke-opacity="1" fill="none" fill-opacity="1" stroke-dasharray="none">
    <title>Canvas 1</title>
    <rect fill="white" x="242" y="9" width="723" height="638"/>
    <g id="Canvas_1_Layer_1">
      <title>Layer 1</title>
      <g id="Graphic_2">
        <path d="M 598.8565 296 L 713.3565 296 C 717.7748 296 721.3565 299.58172 721.3565 304 L 721.3565 341.5 C 721.3565 345.91828 717.7748 349.5 713.3565 349.5 L 598.8565 349.5 C 594.4382 349.5 590.8565 345.91828 590.8565 341.5 L 590.8565 304 C 590.8565 299.58172 594.4382 296 598.8565 296 Z" fill="white"/>
        <path d="M 598.8565 296 L 713.3565 296 C 717.7748 296 721.3565 299.58172 721.3565 304 L 721.3565 341.5 C 721.3565 345.91828 717.7748 349.5 713.3565 349.5 L 598.8565 349.5 C 594.4382 349.5 590.8565 345.91828 590.8565 341.5 L 590.8565 304 C 590.8565 299.58172 594.4382 296 598.8565 296 Z" stroke="black" stroke-linecap="round" stroke-linejoin="round" stroke-width="1"/>
        <text transform="translate(595.8565 304.302)" fill="black">
          <tspan font-family="Helvetica Neue" font-size="16" fill="black" x="8.682" y="15" xml:space="preserve">Thermocouple </tspan>
          <tspan font-family="Helvetica Neue" font-size="16" fill="black" x="19.514" y="33.448" xml:space="preserve">Reader (2x)</tspan>
        </text>
      </g>
      <g id="Graphic_3">
        <path d="M 624.1481 122.99647 L 738.6481 122.99647 C 743.0664 122.99647 746.6481 126.57819 746.6481 130.99647 L 746.6481 173.99647 C 746.6481 178.41475 743.0664 181.99647 738.6481 181.99647 L 624.1481 181.99647 C 619.72984 181.99647 616.1481 178.41475 616.1481 173.99647 L 616.1481 130.99647 C 616.1481 126.57819 619.72984 122.99647 624.1481 122.99647 Z" fill="white"/>
        <path d="M 624.1481 122.99647 L 738.6481 122.99647 C 743.0664 122.99647 746.6481 126.57819 746.6481 130.99647 L 746.6481 173.99647 C 746.6481 178.41475 743.0664 181.99647 738.6481 181.99647 L 624.1481 181.99647 C 619.72984 181.99647 616.1481 178.41475 616.1481 173.99647 L 616.1481 130.99647 C 616.1481 126.57819 619.72984 122.99647 624.1481 122.99647 Z" stroke="black" stroke-linecap="round" stroke-linejoin="round" stroke-width="1"/>
        <text transform="translate(621.1481 134.04847)" fill="black">
          <tspan font-family="Helvetica Neue" font-size="16" fill="black" x="6.018" y="15" xml:space="preserve">Current Source</tspan>
          <tspan font-family="Helvetica Neue" font-size="16" fill="black" x="20.97" y="33.448" xml:space="preserve">(0-100 mA)</tspan>
        </text>
      </g>
      <g id="Graphic_4">
        <path d="M 828.9207 373.19494 L 904.6907 373.19494 C 909.109 373.19494 912.6907 376.77666 912.6907 381.19494 L 912.6907 438.69494 C 912.6907 443.1132 909.109 446.69494 904.6907 446.69494 L 828.9207 446.69494 C 824.5024 446.69494 820.9207 443.1132 820.9207 438.69494 L 820.9207 381.19494 C 820.9207 376.77666 824.5024 373.19494 828.9207 373.19494 Z" fill="white"/>
        <path d="M 828.9207 373.19494 L 904.6907 373.19494 C 909.109 373.19494 912.6907 376.77666 912.6907 381.19494 L 912.6907 438.69494 C 912.6907 443.1132 909.109 446.69494 904.6907 446.69494 L 828.9207 446.69494 C 824.5024 446.69494 820.9207 443.1132 820.9207 438.69494 L 820.9207 381.19494 C 820.9207 376.77666 824.5024 373.19494 828.9207 373.19494 Z" stroke="black" stroke-linecap="round" stroke-linejoin="round" stroke-width="1"/>
        <text transform="translate(825.9207 373.04894)" fill="black">
          <tspan font-family="Helvetica Neue" font-size="16" fill="black" x="10.197014" y="15" xml:space="preserve">4-20 mA </tspan>
          <tspan font-family="Helvetica Neue" font-size="16" fill="black" x="14.213014" y="33.448" xml:space="preserve">Current </tspan>
          <tspan font-family="Helvetica Neue" font-size="16" fill="black" x="22.509014" y="51.895996" xml:space="preserve">Loop </tspan>
          <tspan font-family="Helvetica Neue" font-size="16" fill="black" x="5.0370136" y="70.34399" xml:space="preserve">Generator</tspan>
        </text>
      </g>
      <g id="Graphic_5">
        <path d="M 372.6309 92 L 487.1309 92 C 491.5492 92 495.1309 95.58172 495.1309 100 L 495.1309 143 C 495.1309 147.41828 491.5492 151 487.1309 151 L 372.6309 151 C 368.21263 151 364.6309 147.41828 364.6309 143 L 364.6309 100 C 364.6309 95.58172 368.21263 92 372.6309 92 Z" fill="white"/>
        <path d="M 372.6309 92 L 487.1309 92 C 491.5492 92 495.1309 95.58172 495.1309 100 L 495.1309 143 C 495.1309 147.41828 491.5492 151 487.1309 151 L 372.6309 151 C 368.21263 151 364.6309 147.41828 364.6309 143 L 364.6309 100 C 364.6309 95.58172 368.21263 92 372.6309 92 Z" stroke="black" stroke-linecap="round" stroke-linejoin="round" stroke-width="1"/>
        <text transform="translate(369.6309 103.052)" fill="black">
          <tspan font-family="Helvetica Neue" font-size="16" fill="black" x="14.322" y="15" xml:space="preserve">Non-isolated</tspan>
          <tspan font-family="Helvetica Neue" font-size="16" fill="black" x="25.882" y="33.448" xml:space="preserve">IV Sensor</tspan>
        </text>
      </g>
      <g id="Graphic_6">
        <text transform="translate(323.449 244.76172)" fill="black">
          <tspan font-family="Helvetica Neue" font-size="16" fill="black" x="6394885e-19" y="15" xml:space="preserve">Cathode </tspan>
          <tspan font-family="Apple Symbols" font-size="16" fill="black" y="15" xml:space="preserve">⊖</tspan>
        </text>
      </g>
      <g id="Graphic_7">
        <text transform="translate(452.2213 244.76172)" fill="black">
          <tspan font-family="Helvetica Neue" font-size="16" fill="black" x="0" y="15" xml:space="preserve">Anode </tspan>
          <tspan font-family="Apple Symbols" font-size="16" fill="black" y="15" xml:space="preserve">⊕</tspan>
        </text>
      </g>
      <g id="Graphic_9">
        <path d="M 331.10156 524.6785 L 331.10156 418.10664 C 331.10156 410.7532 365.1268 404.78516 407.0508 404.78516 C 448.97475 404.78516 483 410.7532 483 418.10664 L 483 524.6785 C 483 532.032 448.97475 538 407.0508 538 C 365.1268 538 331.10156 532.032 331.10156 524.6785" fill="white"/>
        <path d="M 331.10156 524.6785 L 331.10156 418.10664 C 331.10156 410.7532 365.1268 404.78516 407.0508 404.78516 C 448.97475 404.78516 483 410.7532 483 418.10664 L 483 524.6785 C 483 532.032 448.97475 538 407.0508 538 C 365.1268 538 331.10156 532.032 331.10156 524.6785 M 331.10156 418.10664 C 331.10156 425.4601 365.1268 431.4281 407.0508 431.4281 C 448.97475 431.4281 483 425.4601 483 418.10664" stroke="black" stroke-linecap="round" stroke-linejoin="round" stroke-width="1"/>
      </g>
      <g id="Graphic_10">
        <text transform="translate(300.5503 371.98737)" fill="black">
          <tspan font-family="Helvetica Neue" font-size="16" fill="black" x="20250468e-20" y="15" xml:space="preserve">TK1</tspan>
        </text>
      </g>
      <g id="Graphic_11">
        <text transform="translate(486.02344 371.98737)" fill="black">
          <tspan font-family="Helvetica Neue" font-size="16" fill="black" x="20250468e-20" y="15" xml:space="preserve">TK2</tspan>
        </text>
      </g>
      <g id="Graphic_12">
        <rect x="346.5" y="358.85938" width="8.5" height="152.64062" fill="white"/>
        <rect x="346.5" y="358.85938" width="8.5" height="152.64062" stroke="black" stroke-linecap="round" stroke-linejoin="round" stroke-width="1"/>
      </g>
      <g id="Graphic_13">
        <rect x="466.09475" y="358.85938" width="8.5" height="103.64062" fill="white"/>
        <rect x="466.09475" y="358.85938" width="8.5" height="103.64062" stroke="black" stroke-linecap="round" stroke-linejoin="round" stroke-width="1"/>
      </g>
      <g id="Graphic_16">
        <path d="M 598.8565 470.9303 L 747 470.9303 C 751.4183 470.9303 755 474.512 755 478.9303 L 755 615.5709 C 755 619.9892 751.4183 623.5709 747 623.5709 L 598.8565 623.5709 C 594.4382 623.5709 590.8565 619.9892 590.8565 615.5709 L 590.8565 478.9303 C 590.8565 474.512 594.4382 470.9303 598.8565 470.9303 Z" fill="white"/>
        <path d="M 598.8565 470.9303 L 747 470.9303 C 751.4183 470.9303 755 474.512 755 478.9303 L 755 615.5709 C 755 619.9892 751.4183 623.5709 747 623.5709 L 598.8565 623.5709 C 594.4382 623.5709 590.8565 619.9892 590.8565 615.5709 L 590.8565 478.9303 C 590.8565 474.512 594.4382 470.9303 598.8565 470.9303 Z" stroke="black" stroke-linecap="round" stroke-linejoin="round" stroke-width="1"/>
        <text transform="translate(595.8565 528.8026)" fill="black">
          <tspan font-family="Helvetica Neue" font-size="16" fill="black" x="43.727754" y="15" xml:space="preserve">Induction </tspan>
          <tspan font-family="Helvetica Neue" font-size="16" fill="black" x="53.223754" y="33.448" xml:space="preserve">Heater</tspan>
        </text>
      </g>
      <g id="Graphic_37">
        <path d="M 250.53228 9.620453 L 326.3023 9.620453 C 330.7206 9.620453 334.3023 13.202175 334.3023 17.620453 L 334.3023 75.12045 C 334.3023 79.53873 330.7206 83.12045 326.3023 83.12045 L 250.53228 83.12045 C 246.114 83.12045 242.53228 79.53873 242.53228 75.12045 L 242.53228 17.620453 C 242.53228 13.202175 246.114 9.620453 250.53228 9.620453 Z" fill="white"/>
        <path d="M 250.53228 9.620453 L 326.3023 9.620453 C 330.7206 9.620453 334.3023 13.202175 334.3023 17.620453 L 334.3023 75.12045 C 334.3023 79.53873 330.7206 83.12045 326.3023 83.12045 L 250.53228 83.12045 C 246.114 83.12045 242.53228 79.53873 242.53228 75.12045 L 242.53228 17.620453 C 242.53228 13.202175 246.114 9.620453 250.53228 9.620453 Z" stroke="black" stroke-linecap="round" stroke-linejoin="round" stroke-width="1"/>
        <text transform="translate(247.53228 18.698456)" fill="black">
          <tspan font-family="Helvetica Neue" font-size="16" fill="black" x="11.389014" y="15" xml:space="preserve">Modbus</tspan>
          <tspan font-family="Helvetica Neue" font-size="16" fill="black" x="27.557014" y="33.448" xml:space="preserve">Wifi </tspan>
          <tspan font-family="Helvetica Neue" font-size="16" fill="black" x="17.333014" y="51.895996" xml:space="preserve">Bridge</tspan>
        </text>
      </g>
      <g id="Line_45">
        <line x1="590.8565" y1="509.09044" x2="495.63695" y2="489.5613" marker-end="url(#FilledArrow_Marker)" stroke="black" stroke-linecap="round" stroke-linejoin="round" stroke-width="2"/>
      </g>
      <g id="Graphic_46">
        <rect x="524.314" y="485.09925" width="37.84" height="28.447998" fill="white"/>
        <text transform="translate(529.314 490.09925)" fill="black">
          <tspan font-family="Helvetica Neue" font-size="16" fill="black" x="7283063e-20" y="15" xml:space="preserve">Coil</tspan>
        </text>
      </g>
      <g id="Graphic_14">
        <rect x="406.16288" y="232.85938" width="3" height="238.5" fill="white"/>
        <rect x="406.16288" y="232.85938" width="3" height="238.5" stroke="black" stroke-linecap="round" stroke-linejoin="round" stroke-width="1"/>
      </g>
      <g id="Graphic_15">
        <rect x="443.59316" y="232.85938" width="3" height="238.5" fill="white"/>
        <rect x="443.59316" y="232.85938" width="3" height="238.5" stroke="black" stroke-linecap="round" stroke-linejoin="round" stroke-width="1"/>
      </g>
      <g id="Graphic_57">
        <text transform="translate(439.3041 471.6332)" fill="black">
          <tspan font-family="Apple Symbols" font-size="16" fill="black" x="0" y="11" xml:space="preserve">⊕</tspan>
        </text>
      </g>
      <g id="Graphic_58">
        <text transform="translate(401.08984 471.6332)" fill="black">
          <tspan font-family="Apple Symbols" font-size="16" fill="black" x="0" y="11" xml:space="preserve">⊖</tspan>
        </text>
      </g>
      <g id="Graphic_59">
        <path d="M 675.2861 582.9309 L 747 582.9309 C 751.4183 582.9309 755 586.51264 755 590.9309 L 755 615.5709 C 755 619.9892 751.4183 623.5709 747 623.5709 L 675.2861 623.5709 C 670.86785 623.5709 667.2861 619.9892 667.2861 615.5709 L 667.2861 590.9309 C 667.2861 586.51264 670.86785 582.9309 675.2861 582.9309 Z" fill="white"/>
        <path d="M 675.2861 582.9309 L 747 582.9309 C 751.4183 582.9309 755 586.51264 755 590.9309 L 755 615.5709 C 755 619.9892 751.4183 623.5709 747 623.5709 L 675.2861 623.5709 C 670.86785 623.5709 667.2861 619.9892 667.2861 615.5709 L 667.2861 590.9309 C 667.2861 586.51264 670.86785 582.9309 675.2861 582.9309 Z" stroke="black" stroke-linecap="round" stroke-linejoin="round" stroke-width="1"/>
        <text transform="translate(672.2861 584.8029)" fill="black">
          <tspan font-family="Helvetica Neue" font-size="16" fill="black" x="7.448937" y="15" xml:space="preserve">Pyro PID </tspan>
          <tspan font-family="Helvetica Neue" font-size="16" fill="black" x="20.624937" y="33.448" xml:space="preserve">Input</tspan>
        </text>
      </g>
      <g id="Line_61">
        <path d="M 350.75 358.85938 L 350.75 306.7 L 590.8565 306.7" stroke="black" stroke-linecap="round" stroke-linejoin="round" stroke-width="2"/>
      </g>
      <g id="Line_62">
        <path d="M 470.34475 358.85938 L 470.34475 338.8 L 590.8565 338.8" stroke="black" stroke-linecap="round" stroke-linejoin="round" stroke-width="2"/>
      </g>
      <g id="Line_64">
        <path d="M 397.2559 151 L 397.2559 191.92969 L 407.66288 191.92969 L 407.66288 232.85938" stroke="black" stroke-linecap="round" stroke-linejoin="round" stroke-width="2"/>
      </g>
      <g id="Line_65">
        <path d="M 462.5059 151 L 462.5059 191.92969 L 445.09316 191.92969 L 445.09316 232.85938" stroke="black" stroke-linecap="round" stroke-linejoin="round" stroke-width="2"/>
      </g>
      <g id="Line_66">
        <path d="M 495.1309 121.5 L 555.6395 121.5 L 555.6395 152.49647 L 616.1481 152.49647" stroke="black" stroke-linecap="butt" stroke-linejoin="round" stroke-width="6"/>
      </g>
      <g id="Line_70">
        <path d="M 462.5059 92 L 462.5059 66.78882 L 648.7731 66.78882 L 648.7731 122.99647" stroke="#0432ff" stroke-linecap="butt" stroke-linejoin="round" stroke-width="10"/>
      </g>
      <g id="Line_71">
        <path d="M 746.6481 167.24647 L 769.7286 167.24647 L 769.7286 306.7 L 721.3565 306.7" stroke="#0432ff" stroke-linecap="butt" stroke-linejoin="round" stroke-width="10"/>
      </g>
      <g id="Line_72">
        <path d="M 334.3023 64.74545 L 397.2559 64.74545 L 397.2559 92" stroke="#0432ff" stroke-linecap="butt" stroke-linejoin="round" stroke-width="10"/>
      </g>
      <g id="Graphic_73">
        <path d="M 956 610.2309 L 920.6907 610.2309 C 916.2724 610.2309 912.6907 613.8126 912.6907 618.2309 L 912.6907 632.5668 C 912.6907 636.9851 916.2724 640.5668 920.6907 640.5668 L 956 640.5668 C 960.4183 640.5668 964 636.9851 964 632.5668 L 964 618.2309 C 964 613.8126 960.4183 610.2309 956 610.2309 Z" fill="white"/>
        <path d="M 956 610.2309 L 920.6907 610.2309 C 916.2724 610.2309 912.6907 613.8126 912.6907 618.2309 L 912.6907 632.5668 C 912.6907 636.9851 916.2724 640.5668 920.6907 640.5668 L 956 640.5668 C 960.4183 640.5668 964 636.9851 964 632.5668 L 964 618.2309 C 964 613.8126 960.4183 610.2309 956 610.2309 Z" stroke="black" stroke-linecap="round" stroke-linejoin="round" stroke-width="1"/>
        <text transform="translate(917.6907 616.17485)" fill="#0432ff">
          <tspan font-family="Helvetica Neue" font-size="16" fill="#0432ff" x="1.3906555" y="15" xml:space="preserve">120Ω</tspan>
        </text>
      </g>
      <g id="Graphic_80">
        <text transform="translate(803.5555 287.03155)" fill="black">
          <tspan font-family="Helvetica Neue" font-size="16" fill="black" x="7958079e-19" y="15" xml:space="preserve">RS-485</tspan>
        </text>
      </g>
      <g id="Graphic_81">
        <path d="M 828.9207 572.3308 L 904.6907 572.3308 C 909.109 572.3308 912.6907 575.9125 912.6907 580.3308 L 912.6907 637.8308 C 912.6907 642.2491 909.109 645.8308 904.6907 645.8308 L 828.9207 645.8308 C 824.5024 645.8308 820.9207 642.2491 820.9207 637.8308 L 820.9207 580.3308 C 820.9207 575.9125 824.5024 572.3308 828.9207 572.3308 Z" fill="white"/>
        <path d="M 828.9207 572.3308 L 904.6907 572.3308 C 909.109 572.3308 912.6907 575.9125 912.6907 580.3308 L 912.6907 637.8308 C 912.6907 642.2491 909.109 645.8308 904.6907 645.8308 L 828.9207 645.8308 C 824.5024 645.8308 820.9207 642.2491 820.9207 637.8308 L 820.9207 580.3308 C 820.9207 575.9125 824.5024 572.3308 828.9207 572.3308 Z" stroke="black" stroke-linecap="round" stroke-linejoin="round" stroke-width="1"/>
        <text transform="translate(825.9207 572.1848)" fill="black">
          <tspan font-family="Helvetica Neue" font-size="16" fill="black" x="10.197014" y="15" xml:space="preserve">4-20 mA </tspan>
          <tspan font-family="Helvetica Neue" font-size="16" fill="black" x="14.213014" y="33.448" xml:space="preserve">Current  </tspan>
          <tspan font-family="Helvetica Neue" font-size="16" fill="black" x="22.509014" y="51.895996" xml:space="preserve">Loop </tspan>
          <tspan font-family="Helvetica Neue" font-size="16" fill="black" x="24.293014" y="70.34399" xml:space="preserve">ADC </tspan>
        </text>
      </g>
      <g id="Graphic_82">
        <path d="M 828.9207 472.7629 L 904.6907 472.7629 C 909.109 472.7629 912.6907 476.3446 912.6907 480.7629 L 912.6907 538.2629 C 912.6907 542.68115 909.109 546.2629 904.6907 546.2629 L 828.9207 546.2629 C 824.5024 546.2629 820.9207 542.68115 820.9207 538.2629 L 820.9207 480.7629 C 820.9207 476.3446 824.5024 472.7629 828.9207 472.7629 Z" fill="white"/>
        <path d="M 828.9207 472.7629 L 904.6907 472.7629 C 909.109 472.7629 912.6907 476.3446 912.6907 480.7629 L 912.6907 538.2629 C 912.6907 542.68115 909.109 546.2629 904.6907 546.2629 L 828.9207 546.2629 C 824.5024 546.2629 820.9207 542.68115 820.9207 538.2629 L 820.9207 480.7629 C 820.9207 476.3446 824.5024 472.7629 828.9207 472.7629 Z" stroke="black" stroke-linecap="round" stroke-linejoin="round" stroke-width="1"/>
        <text transform="translate(825.9207 481.8409)" fill="black">
          <tspan font-family="Helvetica Neue" font-size="16" fill="black" x="10.197014" y="15" xml:space="preserve">4-20 mA </tspan>
          <tspan font-family="Helvetica Neue" font-size="16" fill="black" x="18.813014" y="33.448" xml:space="preserve">Signal </tspan>
          <tspan font-family="Helvetica Neue" font-size="16" fill="black" x="14.373014" y="51.895996" xml:space="preserve">Isolator</tspan>
        </text>
      </g>
      <g id="Line_83">
        <line x1="820.9207" y1="609.0808" x2="755" y2="608.5876" stroke="#ab7942" stroke-linecap="butt" stroke-linejoin="round" stroke-width="9"/>
      </g>
      <g id="Line_84">
        <path d="M 721.3565 328.1 L 943.827 328.1 L 943.827 391.56994 L 912.6907 391.56994" stroke="#0432ff" stroke-linecap="butt" stroke-linejoin="round" stroke-width="10"/>
      </g>
      <g id="Line_85"/>
      <g id="Line_86"/>
      <g id="Line_88">
        <line x1="866.8057" y1="472.7629" x2="866.8057" y2="446.69494" stroke="#ab7942" stroke-linecap="butt" stroke-linejoin="round" stroke-width="9"/>
      </g>
      <g id="Line_89">
        <line x1="866.8057" y1="572.3308" x2="866.8057" y2="546.2629" stroke="#ab7942" stroke-linecap="butt" stroke-linejoin="round" stroke-width="9"/>
      </g>
      <g id="Line_90">
        <path d="M 912.6907 428.31994 L 945.7232 428.31994 L 945.7232 590.7058 L 912.6907 590.7058" stroke="#0432ff" stroke-linecap="butt" stroke-linejoin="round" stroke-width="10"/>
      </g>
    </g>
  </g>
</svg>
